<?xml version="1.0" encoding="utf-8"?>
<!-- Generator: Adobe Illustrator 22.0.1, SVG Export Plug-In . SVG Version: 6.00 Build 0)  -->
<svg version="1.1" id="圖層_1" xmlns="http://www.w3.org/2000/svg" xmlns:xlink="http://www.w3.org/1999/xlink" x="0px" y="0px"
	 viewBox="0 0 500 500" style="enable-background:new 0 0 500 500;" xml:space="preserve">
<style type="text/css">
	.st0{fill:#79B439;}
</style>
<path class="st0" d="M259.6,500c3.5-25.9,3.4-51.9,2.8-78c-0.5-26-1.7-52-2.7-78.3c15.6,0,30.9,0,46.2,0
	c-2.7,52.2-3.4,104.2,0.5,156.2C290.8,500,275.2,500,259.6,500z"/>
<path class="st0" d="M181.4,500c0.7-10.2,2-20.4,2-30.6c-0.2-35.1-1-70.2-1.5-105.3c-0.1-6.6,0-13.3,0-20.2c14.8,0,30,0,45.6,0
	c-0.4,8.2-1.3,16.4-1.3,24.6c0,38.4,0.1,76.8,0.4,115.1c0,5.5,1.1,11,1.7,16.4C212.7,500,197,500,181.4,500z"/>
<path class="st0" d="M364.4,190c6.9,23,14.6,45.8,16.2,70.1c0.7,11.2-2.6,21.9-7,32.1c-0.6,1.3-1.1,2.6-0.8,4.6
	c6.5-5.5,13-11,19.4-16.6c0.7-0.6,1.1-1.6,1.3-2.5c6.3-26,21.1-45.9,43.5-60.1c18.5-11.8,37.2-23.2,55.8-34.8c0.3,0.3,0.7,0.7,1,1
	c-0.3,0.8-0.4,1.7-0.8,2.3c-12.5,20.2-24.6,40.6-37.7,60.4c-13.2,20.1-32.6,31.8-55.8,37.5c-1.4,0.3-3.1,0.5-4.1,1.4
	c-9,7.2-17.9,14.5-27.7,22.4c20.7-6.6,39.4-1.7,57.9,5.2c12.9,4.8,25.8,9.8,38.7,14.6c0,0.5-0.1,0.9-0.1,1.4
	c-5.1,0.8-10.2,1.9-15.3,2.4c-17.2,1.4-34.3,3.1-51.5,3.6c-15.4,0.4-28.7-6.3-40.7-15.5c-3.2-2.4-5.2-2.3-8.5-0.5
	c-12.4,6.5-24.9,12.7-37.5,18.7c-1.6,0.8-4,0-6.1,0c1.4-1.7,2.3-4.1,4.1-5.1c17.4-9.5,34.9-18.8,52.4-28.1c1.1-0.6,2.1-1.4,3.6-2.4
	c-1.5-2.6-2.9-5.1-4.3-7.5c-8.2-14.7-11.8-30.3-8.9-47c3.4-19.3,7.3-38.6,10.9-57.9C363,189.7,363.7,189.9,364.4,190z"/>
<path class="st0" d="M306,0c-3.1,52.1-3,103.9,0.1,156c-15.4,0-30.6,0-45,0c0.5-26,1.5-51.9,1.3-77.8c-0.2-26-1.7-52-2.6-78.2
	C275.4,0,290.7,0,306,0z"/>
<path class="st0" d="M306,172c-3.1,52.1-3,103.8,0.1,155.8c-15.3,0-30.7,0-45.1,0c0.5-26,1.5-52,1.2-77.9
	c-0.2-25.8-1.7-51.7-2.6-77.9C275.2,172,290.5,172,306,172z"/>
<path class="st0" d="M181.1,213c15.8,0,31.1,0,46.2,0c-2.9,38.4-2.9,76.5,0.1,114.9c-15.3,0-30.5,0-46.3,0
	C187,289.6,182.6,251.5,181.1,213z"/>
<path class="st0" d="M92.7,291.9c-9.8-26.4,2.1-49.9,8.7-74.1c5,18.1,11.1,36.1,9.4,55.1c-0.8,8.6-4.9,17-7.7,26.4
	c3.8,2.4,8.7,5.8,13.9,8.8c18.9,11.1,38.9,19.5,60.5,23.9c2.2,0.4,4.1,1.8,6.3,2.8c-1.9,4.7-4.9,3.2-7.4,2.7
	c-18.3-3.7-35.6-10.1-52-18.9c-3-1.6-5.2-1.9-8.1,0.6c-14.7,12.4-32.1,13.7-50.3,11.6c-9.7-1.1-19.4-2.4-29-3.6
	c-0.2-0.5-0.3-1.1-0.5-1.6c12.1-4.4,24.2-9,36.4-13.3c12.7-4.4,25.5-4.7,38.5-0.6c-1.1-0.7-2.1-1.5-3.2-2.2
	c-3.8-2.5-7.8-4.7-11.4-7.6c-10.4-8.2-21.1-15.2-34.1-19c-10.1-2.9-18.2-10-24.8-18.2c-12.6-15.7-22.4-33-31.5-51.3
	c3.9,2.2,7.8,4.2,11.6,6.5c11.4,7.2,22.9,14.3,34.1,21.8c11.7,7.8,20.1,18.6,24.6,31.9c2.1,6.3,5.7,10.7,10.8,14.3
	C89.2,289.1,90.9,290.6,92.7,291.9z"/>
<path class="st0" d="M196.3,125.4c-0.9-4.7-2-9.1-2.5-13.5c-0.8-6.7,0.3-13.3,2.9-19.4c4.8-11,9.9-21.9,14.9-32.8
	c0.3,0.1,0.6,0.2,0.9,0.2c0.1,0.4,0.4,0.8,0.4,1.2c0.7,13.2,1.6,26.4-0.2,39.7c-1.3,9.5-6,17.2-12.2,24.2c-0.7,0.7-1.3,1.4-2.1,2.2
	c10.2,8,21.2,14.6,32.5,20.5c3.9,2.1,8,3.8,11.9,6c1.1,0.6,1.6,2.1,2.4,3.1c-1.2,0-2.7,0.4-3.6-0.1c-10.2-5.4-20.4-10.9-30.5-16.4
	c-1.2-0.7-2.1-1.5-3.6-0.2c-10.5,8.7-22.9,11.3-36.1,9.9c-9.4-0.9-18.8-2.3-28.2-3.4c-0.4-0.1-0.9-0.2-1.8-0.4
	c0.6-0.5,0.9-0.8,1.2-0.9c12.4-5.2,24.7-10.6,38-13.1c3.1-0.6,6.3-0.7,9.4-0.6c3.1,0.1,6.2,0.7,9.5,0.9c-4.6-2.9-7.6-7.8-13.4-9.2
	c-11.5-2.9-21.5-8.3-29.3-17.5c-11-13.1-19.1-28-27.8-43.4c1,0.3,1.5,0.4,1.8,0.6c12.7,7.9,25.6,15.6,38.1,23.9
	c10.5,7,17.1,17.3,20.4,29.4C190.4,120.6,193.4,122.7,196.3,125.4z"/>
</svg>
