<?xml version="1.0" encoding="utf-8"?>
<!-- Generator: Adobe Illustrator 22.0.1, SVG Export Plug-In . SVG Version: 6.00 Build 0)  -->
<svg version="1.1" id="圖層_1" xmlns="http://www.w3.org/2000/svg" xmlns:xlink="http://www.w3.org/1999/xlink" x="0px" y="0px"
	 viewBox="0 0 600 600" style="enable-background:new 0 0 600 600;" xml:space="preserve">
<style type="text/css">
	.st0{fill:none;stroke:#231815;stroke-miterlimit:10;}
	.st1{fill:none;stroke:#83C630;stroke-linecap:round;stroke-linejoin:round;stroke-miterlimit:10;}
	.st2{fill:#83C630;}
	.st3{fill:#72BF27;}
	.st4{fill:none;stroke:#83C630;stroke-linecap:round;stroke-miterlimit:10;}
	.st5{clip-path:url(#SVGID_2_);fill:#72BF27;}
	.st6{clip-path:url(#SVGID_2_);fill:#83C630;}
	.st7{clip-path:url(#SVGID_2_);fill:#EFED67;}
	.st8{clip-path:url(#SVGID_2_);fill:none;stroke:#EFED67;stroke-linecap:round;stroke-linejoin:round;stroke-miterlimit:10;}
	.st9{fill:#231815;}
	.st10{fill:none;stroke:#83C630;stroke-width:3;stroke-miterlimit:10;}
	.st11{fill:#35731C;}
	.st12{fill:#EFED67;}
	.st13{fill:none;stroke:#EFED67;stroke-width:3;stroke-miterlimit:10;}
	.st14{fill:none;}
	.st15{clip-path:url(#SVGID_4_);fill:#72BF27;}
	.st16{clip-path:url(#SVGID_4_);fill:#83C630;}
	.st17{clip-path:url(#SVGID_4_);fill:#EFED67;}
	.st18{clip-path:url(#SVGID_4_);fill:none;stroke:#EFED67;stroke-linecap:round;stroke-linejoin:round;stroke-miterlimit:10;}
	.st19{fill:#244A12;}
	.st20{fill:#5E9697;}
	.st21{fill:#579E23;}
	.st22{fill:#FFFFFF;}
</style>
<g>
	<polygon class="st9" points="354.1,125.9 352.1,122.1 352.2,122 352.2,118.7 353.2,121.9 	"/>
</g>
<g>
	<path class="st2" d="M371.1,563.4c-0.1,0-0.1,0-0.2,0c-0.3-0.1-0.4-0.4-0.3-0.6c24.9-62.8,37.6-130,37.6-199.7
		c0-76.8-15.8-151-46.8-220.6c-3.7-5.5-6.7-11.7-8.7-18.2c-0.2-0.1-0.3-0.3-0.3-0.5l0-0.3c0-0.2,0.2-0.4,0.4-0.4
		c0.2,0,0.4,0.1,0.5,0.3c0,0,0,0,0,0.1c2,6.7,4.9,13,8.8,18.6c31.2,69.8,47,144.2,47,221.1c0,69.8-12.7,137.1-37.6,200.1
		C371.5,563.3,371.3,563.4,371.1,563.4z"/>
</g>
<g>
	<path class="st2" d="M361.5,140.8c-2.8-6.3-5.8-12.6-8.8-18.8C354.7,128.8,357.7,135.2,361.5,140.8z"/>
</g>
<g>
	<path class="st2" d="M100.9,170.7c37.5,64.9,120.4,87.1,185.3,49.7c37.5-21.7,60.7-58.5,66.4-98.3c0,0,0,0,0,0
		c-1.8-6.1-2.8-12.5-2.8-19.2c0-6.7,1-13.2,2.8-19.3c-2.4-16.6-7.9-33.1-16.8-48.6c-0.1-0.2-0.3-0.5-0.4-0.7
		c-0.9-1.5-1.8-2.9-2.7-4.3c-9-0.9-18.2-1.4-27.5-1.4c-89.3,0-168.5,43.1-217.9,109.7c0,0.1,0,0.2,0.1,0.3
		C90.5,149.6,95,160.4,100.9,170.7z"/>
</g>
<g>
	<path class="st2" d="M485,96.8c-3.8,29.7-29.1,52.7-59.8,52.7c-33.3,0-60.3-27-60.3-60.3c0-18.7,8.5-35.5,21.9-46.5
		c-1.2,0.6-2.4,1.2-3.5,1.9c-14.6,8.6-25.7,22.5-30.7,39.1c-1.8,6.1-2.8,12.6-2.8,19.3c0,6.7,1,13.1,2.8,19.2c0,0,0,0,0,0
		c3.1,6.2,6,12.5,8.8,18.8c12.2,18,32.8,29.8,56.2,29.8c37.4,0,67.7-30.3,67.8-67.7c0-0.1,0-0.1,0-0.2c0-2-0.1-3.9-0.3-5.9
		C485.2,96.9,485.1,96.8,485,96.8z"/>
</g>
<g>
	<path class="st10" d="M371.1,565.5c-0.1,0-0.1,0-0.2,0c-0.3-0.1-0.4-0.4-0.3-0.6c24.9-62.8,37.6-130,37.6-199.7
		c0-76.8-15.8-151-46.8-220.6c-3.7-5.5-6.7-11.7-8.7-18.2c-0.2-0.1-0.3-0.3-0.3-0.5l0-0.3c0-0.2,0.2-0.4,0.4-0.4
		c0.2,0,0.4,0.1,0.5,0.3c0,0,0,0,0,0.1c2,6.7,4.9,13,8.8,18.6c31.2,69.8,47,144.2,47,221.1c0,69.8-12.7,137.1-37.6,200.1
		C371.5,565.4,371.3,565.5,371.1,565.5z"/>
</g>
<path class="st11" d="M396.6,210.8l-2.4-7l15.7-4l0.5,1.5l-14.2,3.6l1.9,5.5L396.6,210.8z"/>
<path class="st11" d="M412.3,213.8l-0.4-1.6l-12.8,3.6l0.4,1.6l-1.5,0.4l-1.4-4.9l1.5-0.4l0.4,1.6l12.8-3.6l-0.4-1.6l1.5-0.4
	l1.4,4.9L412.3,213.8z"/>
<path class="st11" d="M415.3,225.4l-1.2-4.6l-14.3,3.7l-0.5-1.8l14.3-3.7l-1.2-4.6l1.6-0.4l2.9,10.9L415.3,225.4z"/>
<path class="st11" d="M418.2,237.4l-1.1-4.6l-14.4,3.4l-0.4-1.8l14.4-3.4l-1.1-4.6l1.6-0.4l2.6,11L418.2,237.4z"/>
<path class="st11" d="M406,251l-1.8-8.2l16-3.5l0.4,1.8l-14.4,3.1l1.4,6.5L406,251z"/>
<path class="st11" d="M408,261.3l-1.7-8.5l16.1-3.2l1.6,8.1l-1.6,0.3l-1.2-6.3l-5.5,1.1l1.2,5.9l-1.6,0.3l-1.2-5.9l-5.8,1.1l1.3,6.7
	L408,261.3z"/>
<path class="st11" d="M413.1,285.3c-1.2-1.5-1.9-3.2-2.2-5.2c-0.4-2.3,0.1-4.3,1.4-5.9s3.2-2.7,5.6-3c2.5-0.4,4.7,0.1,6.5,1.4
	c1.9,1.3,3,3.2,3.3,5.6c0.3,1.8,0.2,3.3-0.2,4.6l-2,0.3c0.6-1.4,0.8-3,0.5-4.8c-0.3-1.8-1.1-3.2-2.6-4.2c-1.4-1-3.2-1.3-5.2-1
	c-2.1,0.3-3.6,1.1-4.6,2.4s-1.4,2.8-1.1,4.7c0.2,1.3,0.6,2.4,1.3,3.2l4.6-0.7l-0.5-3.6l1.6-0.2l0.8,5.4L413.1,285.3z"/>
<path class="st11" d="M427.6,290.1l-0.2-1.6l-13.1,1.7l0.2,1.6l-1.6,0.2l-0.7-5l1.6-0.2l0.2,1.6l13.1-1.7l-0.2-1.6l1.6-0.2l0.7,5
	L427.6,290.1z"/>
<path class="st11" d="M414.6,306.7l-0.2-2l4.4-2.3l-0.8-7l-4.8-1.1l-0.2-2l17,4.4l0.2,1.8L414.6,306.7z M420.4,301.6l6.7-3.4
	c0.2-0.1,0.5-0.2,1-0.4l0-0.1c-0.5,0-0.9-0.1-1.1-0.1l-7.3-1.8L420.4,301.6z"/>
<path class="st11" d="M415.9,321.6l-0.2-2.3l12.5-9.7c0.3-0.2,0.6-0.4,0.9-0.6l0-0.1c-0.3,0.1-1.1,0.2-2.2,0.3l-12,1l-0.2-1.8
	l16.4-1.4l0.2,2.4l-12.4,9.4c-0.6,0.5-1,0.7-1.1,0.8l0,0c0.5-0.1,1.4-0.2,2.5-0.3l11.7-1l0.2,1.8L415.9,321.6z"/>
<path class="st11" d="M431.4,334l-0.3-4.7l-14.7,0.9l-0.1-1.8l14.7-0.9l-0.3-4.7l1.7-0.1l0.7,11.3L431.4,334z"/>
<path class="st11" d="M418,357.6c-0.7-1.2-1-2.7-1.1-4.5c0-2.3,0.7-4.2,2.2-5.6c1.5-1.4,3.4-2.2,5.9-2.2c2.5,0,4.6,0.7,6.3,2.2
	c1.7,1.5,2.6,3.5,2.6,6c0,1.6-0.2,2.8-0.6,3.9l-2,0c0.6-1.2,0.9-2.5,0.9-3.9c0-1.9-0.7-3.5-2.1-4.6c-1.3-1.1-3-1.7-5.1-1.7
	c-2,0-3.5,0.6-4.8,1.7c-1.2,1.1-1.8,2.6-1.8,4.4c0,1.7,0.4,3.1,1.2,4.3L418,357.6z"/>
<path class="st11" d="M417.2,372.6l0-1.8l7.5,0.1l0.1-8.6l-7.5-0.1l0-1.8l16.4,0.1l0,1.8l-7.3-0.1l-0.1,8.6l7.2,0.1l0,1.8
	L417.2,372.6z"/>
<path class="st11" d="M431.9,380.1l0-1.6l-13.3-0.4l0,1.6l-1.6,0l0.1-5l1.6,0l0,1.6l13.3,0.4l0-1.6l1.6,0l-0.1,5L431.9,380.1z"/>
<path class="st11" d="M416.4,395l0.1-2.3l13.6-7.9c0.3-0.2,0.7-0.3,1-0.5l0-0.1c-0.3,0-1.1,0-2.2,0l-12-0.6l0.1-1.8l16.4,0.8
	l-0.1,2.4l-13.5,7.7c-0.7,0.4-1.1,0.6-1.2,0.6l0,0c0.5-0.1,1.4-0.1,2.5,0l11.8,0.6l-0.1,1.8L416.4,395z"/>
<path class="st11" d="M415.5,407.3l0.6-8.6l16.4,1.2l-0.6,8.2l-1.6-0.1l0.5-6.4l-5.6-0.4l-0.4,6L423,407l0.4-6l-5.9-0.4l-0.5,6.8
	L415.5,407.3z"/>
<path class="st11" d="M418.2,409.4c-0.5,0.4-0.9,1-1.2,1.9s-0.6,1.6-0.6,2.4c-0.2,2.4,0.5,3.6,2.3,3.8c0.5,0,0.9,0,1.3-0.2
	c0.4-0.2,0.8-0.5,1.1-0.9c0.3-0.4,0.8-1.2,1.6-2.3c1.1-1.7,2-2.7,2.7-3.1c0.7-0.4,1.5-0.6,2.4-0.5c1.3,0.1,2.3,0.8,3,1.9
	c0.7,1.1,1,2.5,0.8,4.1c-0.2,1.6-0.5,2.8-0.9,3.4l-2.1-0.2c0.8-0.9,1.2-2.1,1.3-3.6c0.1-1,0-1.9-0.4-2.6s-1-1.1-1.8-1.2
	c-0.5,0-0.9,0-1.3,0.2c-0.4,0.2-0.7,0.5-1,0.8s-0.8,1.1-1.5,2.2c-0.9,1.5-1.8,2.6-2.6,3.1c-0.8,0.6-1.7,0.8-2.6,0.7
	c-1.4-0.1-2.4-0.7-3.1-1.8c-0.7-1.1-0.9-2.5-0.7-4.4c0.1-0.6,0.2-1.3,0.5-2.1c0.3-0.9,0.5-1.5,0.8-1.8L418.2,409.4z"/>
<path class="st11" d="M413.1,430.1l1-8.6l16.3,1.9l-0.9,8.2l-1.6-0.2l0.7-6.4l-5.5-0.6l-0.7,5.9l-1.6-0.2l0.7-5.9l-5.8-0.7l-0.8,6.8
	L413.1,430.1z"/>
<path class="st11" d="M410.5,453.4c-0.5-1.3-0.5-2.8-0.3-4.6c0.4-2.3,1.4-4,3.1-5.2s3.8-1.6,6.1-1.2c2.5,0.4,4.5,1.5,5.9,3.3
	c1.4,1.8,1.9,3.9,1.5,6.3c-0.2,1.5-0.7,2.8-1.3,3.7l-1.9-0.3c0.8-1.1,1.3-2.3,1.6-3.7c0.3-1.9-0.1-3.6-1.2-4.9
	c-1.1-1.4-2.7-2.2-4.7-2.5c-1.9-0.3-3.6,0-5,0.9c-1.4,0.9-2.2,2.2-2.5,4c-0.3,1.6-0.1,3.1,0.4,4.4L410.5,453.4z"/>
<path class="st11" d="M407.1,468l0.3-1.8l7.4,1.4l1.6-8.5l-7.4-1.4l0.3-1.8l16.1,3l-0.3,1.8l-7.1-1.3l-1.6,8.5l7.1,1.3l-0.3,1.8
	L407.1,468z"/>
<path class="st11" d="M403.8,483.9l0.4-2l4.9-0.8l1.5-6.9l-4.2-2.6l0.4-2l14.7,9.6l-0.4,1.8L403.8,483.9z M410.9,480.9l7.5-1.1
	c0.2,0,0.6,0,1.1,0l0-0.1c-0.5-0.2-0.8-0.3-1-0.5l-6.4-4L410.9,480.9z"/>
<path class="st11" d="M399.8,500l10.8,2.7c0.8,0.2,1.8,0.5,3,0.9l0-0.1c-0.7-0.4-1.2-0.7-1.4-0.8l-11-8.6l0.2-0.8l13.6-2.5
	c0.4-0.1,0.9-0.1,1.7-0.1l0-0.1c-0.6-0.1-1.6-0.3-3.1-0.7l-10.8-2.7l0.4-1.7l15.9,3.9l-0.6,2.3l-12.5,2.2c-1,0.2-1.7,0.3-2.1,0.3
	l0,0.1c0.5,0.3,1.1,0.8,1.7,1.3l9.9,7.9l-0.5,2.2l-15.9-3.9L399.8,500z"/>
<path class="st11" d="M398.4,505.3l15.8,4.4l-1.2,4.4c-0.4,1.3-1,2.3-1.9,2.9c-0.9,0.6-1.9,0.8-3,0.5c-0.9-0.2-1.6-0.7-2.1-1.4
	s-0.8-1.5-0.9-2.4l0,0c-0.4,1-1,1.8-1.9,2.2c-0.9,0.5-1.8,0.5-2.9,0.2c-1.3-0.4-2.3-1.2-2.9-2.4c-0.6-1.2-0.6-2.5-0.2-4L398.4,505.3
	z M405.3,509.2l-5.8-1.6l-0.7,2.6c-0.3,1.1-0.3,2,0.1,2.8s1,1.3,1.9,1.5c1.9,0.5,3.2-0.5,3.9-3.1L405.3,509.2z M412.1,511.1
	l-5.2-1.5l-0.5,1.9c-0.3,1-0.3,1.9,0.1,2.7s1,1.2,1.9,1.5c1.6,0.4,2.6-0.4,3.2-2.4L412.1,511.1z"/>
<path class="st11" d="M392.4,525.8l2.5-8.3l15.7,4.8l-2.4,7.9l-1.6-0.5l1.9-6.2l-5.3-1.6l-1.7,5.7l-1.6-0.5l1.7-5.7l-5.6-1.7l-2,6.5
	L392.4,525.8z"/>
<path class="st11" d="M388,539.3l0.7-2.1l5.3-1.2c1.1-0.2,1.9-0.5,2.3-0.9c0.4-0.4,0.8-0.8,1-1.5l0.5-1.5l-6.7-2.2l0.6-1.7l15.6,5.2
	l-1.5,4.6c-0.5,1.4-1.2,2.4-2.2,3c-1,0.6-2.2,0.7-3.5,0.3c-2.2-0.7-3.2-2.3-3.1-4.8l0,0c-0.3,0.4-0.7,0.6-1.1,0.8
	c-0.4,0.2-1.1,0.4-2.2,0.7L388,539.3z M405.1,534.6l-5.7-1.9l-0.8,2.5c-0.3,0.9-0.3,1.8,0.1,2.6c0.4,0.8,1,1.3,1.9,1.6
	c0.8,0.3,1.6,0.2,2.3-0.2c0.7-0.4,1.2-1.1,1.5-2.1L405.1,534.6z"/>
<g>
	<path class="st3" d="M364.9,89.1c0,33.3,27,60.3,60.3,60.3c30.7,0,56-23,59.8-52.7c-27.7-24.5-60.4-43.4-96.5-55
		c-0.6,0.3-1.1,0.6-1.6,0.9C373.5,53.6,364.9,70.4,364.9,89.1z"/>
</g>
<g>
	<circle class="st3" cx="262.8" cy="122.1" r="69"/>
</g>
<g>
	<path class="st10" d="M305.4,571.8c-72.6,0-140.9-28.3-192.2-79.6C61.8,440.9,33.5,372.6,33.5,300s28.3-140.9,79.6-192.2
		c51.3-51.3,119.6-79.6,192.2-79.6c9.2,0,18.4,0.5,27.4,1.4c0.3,0,0.5,0.3,0.4,0.5c0,0.3-0.3,0.5-0.5,0.4c-9-0.9-18.2-1.4-27.3-1.4
		C156,29.2,34.5,150.7,34.5,300c0,149.3,121.5,270.8,270.8,270.8c20.9,0,43-2.8,65.6-8.4c0.3-0.1,0.5,0.1,0.6,0.4
		c0.1,0.3-0.1,0.5-0.4,0.6C348.5,569,326.4,571.8,305.4,571.8z"/>
</g>
<g>
	<path class="st3" d="M371,557.6c-1.9-73.2-61.9-132-135.6-132c-51.3,0-96,28.5-119,70.5C165.1,542.5,231,571,303.5,571
		c22.5,0,44.4-2.8,65.3-8c0.8-0.2,1.5-0.3,2.3-0.5c0-0.4,0-0.8,0-1.3C371.1,560,371.1,558.8,371,557.6z"/>
</g>
<g>
	<circle class="st2" cx="256.3" cy="498.3" r="62.6"/>
</g>
<g>
	
		<ellipse transform="matrix(0.7071 -0.7071 0.7071 0.7071 -248.141 289.2925)" class="st12" cx="225.1" cy="444.2" rx="6.2" ry="5.2"/>
</g>
<g>
	
		<ellipse transform="matrix(0.9233 -0.3841 0.3841 0.9233 -155.9853 155.7998)" class="st12" cx="312" cy="468.4" rx="5.5" ry="6.5"/>
</g>
<g>
	<path class="st13" d="M282.7,471.3c-7.7,0-15.7-1.4-21-2.9c-7.8-2.3-23.5-9.8-26-17.6c-0.1-0.3,0.1-0.5,0.3-0.6
		c0.3-0.1,0.5,0.1,0.6,0.3c2.4,7.5,17.6,14.7,25.3,17c9.4,2.8,27.9,5.1,37.3-0.5c0.2-0.1,0.5-0.1,0.7,0.2c0.1,0.2,0.1,0.5-0.2,0.7
		C295.4,470.3,289.1,471.3,282.7,471.3z"/>
</g>
<g>
	<path class="st14" d="M371,557.6c-1.9-73.2-61.9-132-135.6-132c-51.3,0-96,28.5-119,70.5C165.1,542.5,231,571,303.5,571
		c22.5,0,44.4-2.8,65.3-8c0.8-0.2,1.5-0.3,2.3-0.5c0-0.4,0-0.8,0-1.3C371.1,560,371.1,558.8,371,557.6z"/>
</g>
</svg>
