<?xml version="1.0" encoding="utf-8"?>
<!-- Generator: Adobe Illustrator 22.0.1, SVG Export Plug-In . SVG Version: 6.00 Build 0)  -->
<svg version="1.1" id="圖層_1" xmlns="http://www.w3.org/2000/svg" xmlns:xlink="http://www.w3.org/1999/xlink" x="0px" y="0px"
	 viewBox="0 0 600 600" style="enable-background:new 0 0 600 600;" xml:space="preserve">
<style type="text/css">
	.st0{fill:none;stroke:#231815;stroke-miterlimit:10;}
	.st1{fill:none;stroke:#83C630;stroke-linecap:round;stroke-linejoin:round;stroke-miterlimit:10;}
	.st2{fill:#83C630;}
	.st3{fill:#72BF27;}
	.st4{fill:none;stroke:#83C630;stroke-linecap:round;stroke-miterlimit:10;}
	.st5{clip-path:url(#SVGID_2_);fill:#72BF27;}
	.st6{clip-path:url(#SVGID_2_);fill:#83C630;}
	.st7{clip-path:url(#SVGID_2_);fill:#EFED67;}
	.st8{clip-path:url(#SVGID_2_);fill:none;stroke:#EFED67;stroke-linecap:round;stroke-linejoin:round;stroke-miterlimit:10;}
	.st9{clip-path:url(#SVGID_4_);fill:#72BF27;}
	.st10{clip-path:url(#SVGID_4_);fill:#83C630;}
	.st11{clip-path:url(#SVGID_4_);fill:#EFED67;}
	.st12{clip-path:url(#SVGID_4_);fill:none;stroke:#EFED67;stroke-linecap:round;stroke-linejoin:round;stroke-miterlimit:10;}
	.st13{fill:#EFED67;}
	.st14{fill:#35731C;}
	.st15{fill:#244A12;}
	.st16{fill:#5E9697;}
	.st17{fill:#579E23;}
	.st18{fill:#FFFFFF;}
	.st19{fill:none;stroke:#35731C;stroke-width:18;stroke-miterlimit:10;}
	.st20{fill:#231815;}
	.st21{fill:none;}
</style>
<g>
	<g>
		<polygon class="st20" points="399.5,124.5 397.6,120.6 397.7,120.5 397.7,117.3 398.6,120.5 		"/>
	</g>
	<path class="st15" d="M471.9,478.3c-1-0.2-2.1-0.3-3.1-0.7c-4.3-1.3-6.3-5-5.2-9.2c1-4,4.7-6.2,9-5.3c3.1,0.6,5.6,2,6.6,5.2
		C480.5,472.6,478.2,478.3,471.9,478.3z M472.1,475.8c2.8-0.1,4.6-1.4,5.2-3.8c0.6-2.5-0.6-4.8-3.1-5.8c-1.1-0.4-2.3-0.7-3.5-0.8
		c-2.8-0.1-4.8,1.5-5.3,4.2c-0.4,2.4,0.9,4.6,3.6,5.5C470,475.5,471.1,475.6,472.1,475.8z"/>
	<path class="st15" d="M470.8,421.8c0.1-0.8,0.2-1.5,0.2-2.3c2.1,0.2,4.1,0.3,6,0.5c0.6,0,1.1,0.1,1.7,0c0.9,0,1.6-0.4,2-1.3
		c0.4-1,0.2-1.9-0.6-2.5c-0.8-0.5-1.8-0.9-2.7-1.1c-1.9-0.3-3.8-0.4-5.8-0.6c0-0.8,0-1.5,0-2.3c2.2,0.2,4.2,0.4,6.3,0.5
		c0.3,0,0.6,0.1,0.8,0.1c1.6,0,2.5-0.6,2.7-1.9c0.2-1.2-0.6-2.5-2.1-2.8c-1.5-0.3-3-0.4-4.5-0.5c-0.9-0.1-1.7-0.2-2.8-0.3
		c0.1-0.8,0.1-1.5,0.2-2.3c3.7,0.3,7.4,0.7,11.2,1c-0.1,0.8-0.1,1.4-0.2,2.2c-0.5,0-0.9,0.1-1.1,0.1c0.3,1.2,0.9,2.4,1,3.7
		c0.1,1.5-0.9,2.5-2.4,3.1c1.2,1.1,1.9,2.2,1.8,3.8c-0.1,2.1-1.3,3.4-3.4,3.4c-2,0-4.1-0.2-6.1-0.4
		C472.5,422,471.8,421.9,470.8,421.8z"/>
	<path class="st15" d="M474.7,235.4c-0.8,0.2-1.5,0.3-2,0.5c-0.1-1.6-0.1-3.1-0.4-4.5c-0.6-2.8-2.9-4.5-5.8-4.3
		c-1.2,0.1-2.5,0.4-3.5,1c-3.6,1.8-3.1,5.8-1.6,8c0.2,0.2,0.6,0.4,0.9,0.4c1.1-0.2,2.2-0.5,3.4-0.8c-0.3-1.1-0.5-2.1-0.7-3.2
		c0.6-0.2,1.2-0.3,1.9-0.5c0.5,1.9,0.9,3.7,1.4,5.6c-2.3,0.5-4.4,1.1-6.6,1.6c-0.3,0.1-0.8-0.1-1-0.3c-1.9-2.4-2.8-5.1-2.3-8.2
		c0.5-3.1,3.2-5.3,6.6-5.9c5.2-0.8,9.2,2.3,9.8,7.7C474.7,233.4,474.7,234.3,474.7,235.4z"/>
	<path class="st15" d="M471.5,427.3c-0.5-0.1-0.9-0.2-1.3-0.3c0.1-0.7,0.2-1.4,0.3-2.2c5.5,0.7,10.9,1.3,16.5,2
		c-0.1,0.8-0.2,1.5-0.3,2.3c-2.4-0.3-4.7-0.5-6.7-0.8c0.4,1.1,1,2.3,1.1,3.5c0.2,2.2-1.2,3.9-3.5,4.4c-2,0.4-3.8,0.1-5.6-0.8
		C469.2,433.8,468.2,429.6,471.5,427.3z M476,434.1c2-0.2,3.2-1.1,3.4-2.8c0.2-1.6-0.8-3.1-2.6-3.4c-0.8-0.2-1.7-0.3-2.5-0.3
		c-1.4,0-2.4,0.8-2.8,2.1c-0.3,1.3,0.1,2.5,1.3,3.2C473.7,433.5,474.9,433.7,476,434.1z"/>
	<path class="st15" d="M473.7,500.7c-0.2,0.8-0.4,1.5-0.6,2.2c-2.3-0.6-4.5-1.1-7-1.8c1.2,1.5,1.5,3,0.9,4.6c-0.6,1.7-2,2.7-3.8,2.3
		c-2.7-0.5-5.3-1.3-8.1-1.9c0.2-0.8,0.4-1.5,0.6-2.3c1.8,0.5,3.6,0.9,5.4,1.4c0.7,0.2,1.3,0.3,2,0.4c1.1,0.1,2-0.1,2.5-1.2
		c0.5-1.1,0.3-2.3-0.6-3c-0.6-0.5-1.4-0.8-2.1-1c-1.9-0.6-3.8-1-5.7-1.5c0.2-0.7,0.4-1.4,0.6-2.2
		C462.9,497.8,468.3,499.2,473.7,500.7z"/>
	<path class="st15" d="M471.2,307.9c-0.1-0.9-0.2-1.6-0.2-2.4c2-0.2,4-0.5,6-0.7c0.4-0.1,0.9-0.1,1.3-0.2c1.4-0.4,2.1-1,2.1-2.2
		c0-1.2-0.8-2.4-2-2.6c-1.1-0.2-2.3,0-3.4,0.1c-1.4,0.1-2.8,0.3-4.4,0.5c-0.1-0.8-0.2-1.5-0.3-2.3c5.6-0.6,11-1.2,16.6-1.8
		c0.1,0.8,0.2,1.5,0.3,2.3c-2.4,0.3-4.6,0.5-6.6,0.8c0.6,1.1,1.4,2.1,1.8,3.3c0.6,2-0.4,3.7-2.4,4.1
		C476.9,307.3,474.1,307.5,471.2,307.9z"/>
	<path class="st15" d="M483.1,383.8c1.4,1.1,1.9,2.4,1.7,4c-0.2,1.7-1.1,3-2.8,3.1c-2.9,0.2-5.8,0-8.7,0c0-1,0-1.7,0-2.3
		c1.8,0,3.5,0,5.3,0c0.6,0,1.3,0,1.9,0c1.5-0.1,2.4-0.7,2.6-2c0.2-1.2-0.6-2.5-1.9-2.9c-1.3-0.3-2.7-0.4-4-0.4c-1.2-0.1-2.3,0-3.5,0
		c0-0.9,0-1.6,0-2.5c5.6,0.2,11.1,0.5,16.7,0.7c0,0.8-0.1,1.5-0.1,2.2C487.8,383.8,485.5,383.8,483.1,383.8z"/>
	<path class="st15" d="M486.8,378.8c1.4-4.5,1-6.9-1.3-8.5c-2.1-1.6-5.8-1.7-7.8-0.1c-2.9,2.2-2.4,5.2-1.4,8.1
		c-2.1,0.4-2.3,0.3-2.6-1.6c-0.2-1.6-0.2-3.2,0-4.7c0.4-2.2,1.8-3.8,3.9-4.7c3.4-1.3,6.6-1,9.4,1.4c2.8,2.5,3.1,5.7,2.3,9.1
		C489,379.4,487.8,378.3,486.8,378.8z"/>
	<path class="st15" d="M482.9,293.8c0.8-4.1,0-6.6-2.3-8c-2.3-1.3-5.9-1-7.8,0.8c-2.8,2.7-1.8,5.6-0.4,8.4c-2,0.6-2.3,0.6-2.8-1.4
		c-0.4-1.7-0.7-3.6-0.5-5.3c0.4-3.3,3.3-5.4,7-5.8c5.4-0.5,9.8,3.3,9.2,9.9C485.2,294.2,483.8,293.3,482.9,293.8z"/>
	<path class="st15" d="M456.5,519.3c0.7-2.5,1.4-5,2.1-7.4c-3.2-0.8-4.3,0.7-4.4,5.7c-1.7-0.2-1.8-0.4-1.8-2c0-3.2,1.5-5.5,4-6.1
		c2.4-0.6,5.6,0.6,7,2.6c1.3,1.9,1.3,3.8,0.1,5.8c-1.1,1.9-2.9,2.2-4.9,2C457.9,519.7,457.3,519.5,456.5,519.3z M458.8,517.5
		c1.9,0.6,3.2,0,3.6-1.4c0.5-1.5-0.4-3-2.2-3.7C459.8,514.1,459.3,515.7,458.8,517.5z"/>
	<path class="st15" d="M476.3,358.8c-1.7,0.3-2,0.3-2.3-1.2c-0.3-1.4-0.2-2.9-0.2-4.4c0-0.5,0.3-1,0.6-1.4c1.3-2,4.6-2.8,7.4-1.8
		c2.4,0.9,3.7,3,3.5,5.6c-0.2,2.3-1.9,3.8-4.6,4.1c-0.6,0.1-1.1,0-1.8,0c0-2.5,0-5,0-7.6c-1.3-0.2-2.3,0.2-2.9,1.1
		C475,354.5,475.1,356.5,476.3,358.8z M480.5,357.4c1.2,0,2.1-0.2,2.7-1.2c0.5-0.9,0.5-1.9-0.1-2.7c-0.6-0.9-1.4-1.5-2.6-1.4
		C480.5,353.9,480.5,355.6,480.5,357.4z"/>
	<path class="st15" d="M478.4,338.2c-0.1-2.7-0.3-5.1-0.4-7.7c-1.2-0.1-2.1,0.2-2.7,1.1c-1.3,1.9-0.5,3.8,0.4,5.6
		c-1.7,0.4-2,0.3-2.4-1.3c-0.3-1.1-0.5-2.4-0.4-3.5c0.2-2.2,1.5-3.6,3.7-4.2c2-0.5,4-0.5,5.8,0.7c1.8,1.2,2.6,3.2,2.2,5.4
		c-0.4,2.1-1.9,3.2-3.9,3.5C480,338.1,479.3,338.2,478.4,338.2z M479.7,330.5c0.1,1.7,0.2,3.5,0.3,5.2c1.8,0.1,2.9-0.8,2.9-2.3
		C483,331.7,481.7,330.5,479.7,330.5z"/>
	<path class="st15" d="M470,446.6c-1.7,0.1-2,0-2-1.5c-0.1-1.4,0-2.8,0.4-4.1c1-2.9,4.7-3.9,8.1-2.4c2.4,1.1,3.6,3.4,3.1,6
		c-0.4,2.1-1.9,3.4-4,3.6c-0.9,0.1-1.9,0-3,0c0.4-2.8,0.7-5.3,1.1-7.7C470.4,439.6,468.9,442.2,470,446.6z M474.5,445.8
		c2,0.3,3.2-0.4,3.4-1.9c0.2-1.6-0.8-3-2.6-3.3C475,442.4,474.7,444.1,474.5,445.8z"/>
	<path class="st15" d="M459.9,219c-0.8-2.6-1.4-5.1-2.1-7.5c-3.2,0.7-3.5,3.6-0.7,7.1c-1.4,0.8-1.8,0.8-2.6-0.7
		c-0.5-0.9-0.9-1.8-1.1-2.8c-0.7-3.1,1-5.4,4.4-6.3c3.3-0.8,6.2,0.7,7,3.6c0.6,2.2-0.1,4.1-2.1,5.2C462,218.3,461,218.6,459.9,219z
		 M460.9,216.2c1.9-0.5,2.7-1.6,2.3-3.1c-0.4-1.5-1.8-2.4-3.7-2C459.9,212.8,460.4,214.4,460.9,216.2z"/>
	<path class="st15" d="M470.4,246.4c1.7-0.7,2-0.6,2.8,1c0.3,0.5,0.5,1.1,0.6,1.7c0.9,3.2-0.2,4.9-3.4,5.6c-2.2,0.5-4.4,0.9-6.6,1.4
		c-0.1,0-0.1,0-0.3-0.1c-0.1-0.6-0.3-1.3-0.4-2c0.5-0.2,0.9-0.3,1.4-0.5c-1.6-0.9-2.5-2.1-2.5-3.9c0-1.6,0.7-2.6,2.1-3.1
		c1.6-0.6,3.1-0.2,3.9,1.1c0.7,1.1,1.1,2.4,1.6,3.6c0.2,0.4,0.3,0.8,0.4,1.2C472.8,251.9,472.9,249.8,470.4,246.4z M468.5,252.7
		c-0.4-1.1-0.7-2.1-1.2-3c-0.5-1.1-1.4-1.4-2.4-1c-0.9,0.4-1.3,1.3-1,2.4C464.5,252.8,466.2,253.5,468.5,252.7z"/>
	<path class="st15" d="M472.6,402.2c0-0.8,0-1.4,0-2.2c0.5,0,1,0,1.6,0c-1.2-1.1-1.8-2.2-1.7-3.7c0.2-1.8,1.2-3,2.7-3.2
		c2-0.3,3.5,0.6,4,2.4c0.3,1.1,0.3,2.4,0.5,3.5c0,0.4,0.1,0.8,0.1,1.2c2.7,0.4,3.2-1.1,2-5.6c1.9-0.2,1.9-0.1,2.3,1.7
		c0.1,0.4,0.2,0.7,0.2,1.1c0.3,3.8-1.4,5.6-5.2,5.3C476.9,402.5,474.7,402.4,472.6,402.2z M478.2,400.3c-0.1-1.1-0.1-2.2-0.3-3.2
		c-0.2-1.3-1.1-1.9-2.2-1.7c-1,0.2-1.6,1.2-1.4,2.4C474.6,399.5,475.9,400.3,478.2,400.3z"/>
	<path class="st15" d="M440.1,552.6c0.2-0.7,0.5-1.3,0.7-2c0.5,0.2,0.9,0.3,1.5,0.4c-0.2-0.5-0.4-0.8-0.5-1.2
		c-0.6-1.4-0.1-3.3,1.1-4.4c1-0.9,2.4-1,3.8-0.3c1.3,0.7,2,2.1,1.8,3.7c-0.2,1.3-0.5,2.6-0.9,4.3c0.9-0.1,1.8,0.1,2.3-0.3
		c1.6-1.3,1.4-3.1,1.1-4.8c1.8,0.2,1.9,0.3,1.8,2c0,0.7-0.1,1.4-0.3,2.1c-0.9,2.9-2.8,3.9-5.7,2.9c-2.1-0.7-4.2-1.5-6.3-2.3
		C440.4,552.8,440.3,552.7,440.1,552.6z M446.1,552.4c0.1-0.3,0.2-0.5,0.2-0.7c0.2-0.8,0.3-1.6,0.5-2.3c0.2-1.2-0.3-2-1.4-2.3
		c-0.9-0.2-1.8,0.4-2.1,1.4C442.7,550.3,443.7,551.7,446.1,552.4z"/>
	<path class="st15" d="M465.9,268.7c-0.1-0.7-0.3-1.4-0.4-2.2c1.8-0.3,3.5-0.6,5.2-1c0.7-0.1,1.4-0.3,2.1-0.5
		c1.4-0.5,1.9-1.3,1.8-2.6c-0.2-1.2-1.1-2.3-2.4-2.2c-1.5,0-3.1,0.4-4.6,0.6c-1,0.1-1.9,0.3-3,0.5c-0.1-0.8-0.3-1.4-0.4-2.2
		c3.7-0.7,7.3-1.3,11-2c0.2,0.8,0.3,1.4,0.5,2.2c-0.5,0.2-1,0.3-1.5,0.4c0.6,0.5,1.2,1,1.7,1.5c1.8,2.3,0.9,5-1.8,6
		c-0.5,0.2-1.1,0.3-1.6,0.4C470.2,267.9,468.1,268.3,465.9,268.7z"/>
	<path class="st15" d="M472.1,318.5c0-0.7-0.1-1.4-0.1-2.2c3.7-0.3,7.4-0.6,11.2-0.8c0,0.8,0.1,1.4,0.1,2.2c-0.5,0.1-1,0.2-1.5,0.3
		c0.5,0.6,1.1,1.1,1.5,1.7c1.6,2.6,0.4,5.3-2.6,5.9c-0.4,0.1-0.9,0.2-1.3,0.2c-2.1,0.2-4.3,0.3-6.6,0.5c-0.1-0.7-0.2-1.4-0.3-2.3
		c2.1-0.2,4-0.3,6-0.5c0.2,0,0.4,0,0.6,0c2-0.2,3-1.1,2.9-2.6c-0.1-1.6-1.6-2.7-3.4-2.6c-1.9,0.1-3.8,0.3-5.7,0.4
		C472.6,318.5,472.4,318.5,472.1,318.5z"/>
	<path class="st15" d="M443.7,177.5c0.7,2,1.3,3.8,2,5.8c-0.6,0.2-1.2,0.5-1.9,0.7c-1-2.7-1.9-5.3-2.9-8c5-1.8,9.8-3.5,14.8-5.3
		c0.3,0.7,0.5,1.4,0.8,2.2C452.3,174.4,448,176,443.7,177.5z"/>
	<path class="st15" d="M453.2,520.3c-0.6,1.2-1.2,2.2-1.7,3.3c-0.3,0.7-0.3,1.5,0.5,2c0.9,0.5,1.4,0,2-0.6c0.5-0.6,1-1.2,1.5-1.7
		c1.2-1.4,2.4-1.7,3.8-1.1c1.3,0.5,2.1,2,1.9,3.7c-0.1,0.8-0.3,1.6-0.6,2.4c-0.7,1.8-0.8,1.8-2.6,1c0.4-0.9,1-1.8,1.3-2.7
		c0.3-0.8,0.2-1.6-0.6-2.1c-0.8-0.4-1.4,0.1-1.9,0.7c-0.5,0.6-1,1.3-1.5,1.8c-1.1,1.2-2.2,1.5-3.5,1c-1.3-0.5-2-1.6-1.9-3
		c0.1-1.2,0.3-2.5,0.8-3.6C451.2,519.5,451.4,519.5,453.2,520.3z"/>
	<path class="st15" d="M475.6,340c-0.2,1.6-0.4,2.9-0.4,4.1c0,0.5,0.6,1.3,1.1,1.5c0.8,0.3,1.3-0.3,1.6-1c0.4-0.9,0.7-1.9,1.1-2.8
		c0.5-1.1,1.4-1.7,2.6-1.8c1.3-0.1,2.2,0.6,2.8,1.7c0.9,1.5,1,3.2,0.4,4.9c-0.1,0.5-1.2,0.6-1.9,0.9c0.1-1.4,0.4-2.5,0.3-3.5
		c-0.1-0.6-0.6-1.3-1.2-1.6c-0.8-0.3-1.3,0.4-1.6,1.1c-0.4,1-0.7,2-1.2,2.9c-1.1,2.1-3.9,2.3-5.2,0.2c-1.1-1.8-1.2-3.8-0.5-5.8
		C473.8,340.4,474.9,340.3,475.6,340z"/>
	<path class="st15" d="M456.9,532.8c0.2-0.6,0.4-1.1,0.6-1.7c0.5,0.2,1,0.3,1.6,0.5c-0.1,0.7-0.3,1.2-0.4,1.9
		c0.8,0.3,1.6,0.6,2.4,0.8c0,0.8,0,1.5,0,2.4c-1.1-0.3-2.1-0.6-3.2-1c-0.3,0.8-0.6,1.7-0.9,2.5c-0.6-0.2-1.1-0.3-1.6-0.5
		c0.2-0.9,0.5-1.7,0.7-2.7c-2.1-0.7-4.2-1.4-6.4-1.9c-1-0.2-1.3,0.3-1.8,2c-1.7-0.3-1.8-0.4-1.3-2c0.6-2.2,2-3,4.2-2.3
		c1.7,0.5,3.3,1.1,5,1.6C456.2,532.6,456.5,532.7,456.9,532.8z"/>
	<path class="st15" d="M461.1,200.6c-0.6,0.2-1.1,0.4-1.6,0.6c-0.3-0.8-0.6-1.7-0.9-2.6c-2.1,0.7-4.1,1.3-6.1,2
		c-1.1,0.4-1.2,1.2-0.4,2.9c-0.7,0-1.3,0.9-2-0.1c-0.9-1.4-1-3.2,0-4.1c0.6-0.5,1.4-0.9,2.2-1.2c1.8-0.6,3.6-1.2,5.5-1.8
		c-0.1-0.6-0.3-1.1-0.4-1.8c0.5-0.2,1-0.4,1.6-0.6c0.2,0.6,0.4,1.1,0.7,1.8c1.6-0.7,3.1-1.2,3.7,1.3c-0.9,0.3-1.9,0.6-3,1
		C460.6,198.9,460.8,199.7,461.1,200.6z"/>
	<path class="st15" d="M456.1,190.9c-2.1,0.7-4,1.3-6,2c-1.2,0.5-1.3,1.2-0.4,3.1c-0.6,0.1-1.6,0.3-1.7,0.2c-0.5-0.9-1-2-1-3
		c-0.1-1.3,1-2,2.1-2.4c1.7-0.6,3.3-1.1,5-1.7c0.4-0.1,0.7-0.3,1.2-0.4c-0.2-0.6-0.3-1.1-0.5-1.8c0.5-0.2,1-0.3,1.6-0.5
		c0.2,0.6,0.4,1.1,0.7,1.7c1.5-0.5,3.1-1.2,3.7,1.3c-0.9,0.3-1.9,0.7-3,1c0.3,0.9,0.5,1.6,0.8,2.5c-0.5,0.2-1,0.4-1.6,0.6
		C456.7,192.7,456.4,191.9,456.1,190.9z"/>
	<path class="st15" d="M469,277c-1.7,0.5-2,0.3-2.2-1.3c-0.3-2.2,0.4-3.3,2.6-3.8c1.7-0.4,3.5-0.6,5.2-0.9c0.3-0.1,0.7-0.1,1.1-0.2
		c-0.1-0.6-0.1-1.2-0.2-1.8c0.5-0.1,1.1-0.2,1.6-0.3c0.1,0.6,0.3,1.2,0.4,1.8c0.9-0.1,1.8-0.3,2.5-0.1c0.5,0.2,0.7,1.2,1.1,1.9
		c-1.2,0.2-2.2,0.4-3.3,0.6c0.1,0.9,0.2,1.7,0.3,2.6c-0.6,0.1-1,0.2-1.7,0.4c-0.2-0.9-0.4-1.7-0.6-2.7c-2.1,0.4-4.2,0.7-6.2,1.1
		C468.6,274.5,468.4,275.3,469,277z"/>
	<path class="st15" d="M467,496.2c1.6-2.6,1.7-4.2,0.3-5.7c-1.2-1.3-3.7-1.8-5.2-1c-1.6,0.8-2.2,2.4-1.8,5c-1.7,0.1-2-0.1-2-1.8
		c0-2.7,1.4-4.9,3.6-5.7c2.3-0.8,5.6,0.1,7.1,2.1c1.4,1.8,1.5,5,0.3,7C468.8,496.8,468.8,496.8,467,496.2z"/>
	<path class="st15" d="M467,201.2c0.2,0.8,0.4,1.5,0.6,2.2c-5.3,1.6-10.5,3.2-15.9,4.8c-0.2-0.7-0.5-1.4-0.7-2.2
		C456.3,204.4,461.6,202.8,467,201.2z"/>
	<path class="st15" d="M469.3,487c0.9-2.5,0.2-4-2.4-4.6c-0.9-0.2-1.9-0.4-2.8-0.6c-0.9-0.2-1.9-0.4-2.9-0.7
		c0.1-0.7,0.3-1.4,0.4-2.3c3.7,0.8,7.2,1.6,11,2.4c-0.1,0.8-0.3,1.4-0.4,2.2c-0.7-0.1-1.3-0.2-1.7-0.3c0.4,0.8,1,1.7,1.2,2.6
		c0.2,1.2-0.3,1.6-1.5,1.4C469.9,487.2,469.7,487.1,469.3,487z"/>
	<path class="st15" d="M454.1,542.1c0.3,0.9,0.8,1.9,0.8,2.9c0,1.3-0.4,1.5-1.7,1.1c-0.3-0.1-0.5-0.2-0.8-0.3c1.1-2.7,0.5-4-2.3-5
		c-1.7-0.6-3.4-1.2-5.2-1.8c0.2-0.7,0.5-1.4,0.7-2.2c3.5,1.2,7,2.4,10.6,3.6c-0.3,0.7-0.5,1.4-0.7,2.1
		C454.9,542.3,454.3,542.2,454.1,542.1z"/>
	<path class="st15" d="M466.8,451.7c0.1-0.6,0.2-1.3,0.4-2.1c3.7,0.6,7.3,1.2,11.1,1.8c-0.1,0.8-0.2,1.5-0.3,2.3
		c-0.7-0.1-1.2-0.2-2.1-0.3c1.6,1.2,2.3,2.5,1.5,4.2c-0.7-0.1-1.3-0.2-2-0.3c0.6-2.8-0.3-4.1-3.1-4.6c-1.7-0.3-3.5-0.6-5.2-0.9
		C466.9,451.8,466.9,451.8,466.8,451.7z"/>
	<path class="st15" d="M445.2,188c-0.3-0.8-0.5-1.4-0.8-2.2c3.5-1.2,7-2.4,10.6-3.7c0.2,0.7,0.5,1.4,0.8,2.2
		C452.3,185.6,448.8,186.8,445.2,188z"/>
	<path class="st15" d="M461.1,244.6c-0.2-0.8-0.3-1.5-0.5-2.3c3.7-0.8,7.3-1.6,11-2.4c0.2,0.8,0.3,1.5,0.5,2.3
		C468.4,243,464.8,243.8,461.1,244.6z"/>
	<path class="st15" d="M482.7,309.8c0.1,0.9,0.1,1.5,0.2,2.3c-3.7,0.3-7.4,0.7-11.2,1c-0.1-0.8-0.1-1.4-0.2-2.3
		C475.2,310.5,478.9,310.1,482.7,309.8z"/>
	<path class="st15" d="M486.3,309.1c1.3,0.1,1.8,0.6,1.8,1.5c0,0.8-0.5,1.4-1.3,1.4c-0.9,0-1.4-0.6-1.3-1.4
		C485.5,310,486.1,309.5,486.3,309.1z"/>
	<path class="st15" d="M475.3,238.7c1.3,0.2,1.7,0.7,1.7,1.6c0,0.8-0.5,1.4-1.3,1.3c-0.9,0-1.4-0.7-1.3-1.5
		C474.4,239.6,475,239.1,475.3,238.7z"/>
	<path class="st15" d="M460.5,182.1c0,0.9-0.5,1.3-1.4,1.3c-0.9,0-1.3-0.6-1.3-1.4c0-0.9,0.5-1.4,1.3-1.4
		C460.1,180.6,460.5,181.2,460.5,182.1z"/>
	<g>
		<path class="st2" d="M407,139.4c-2.8-6.3-5.8-12.6-8.8-18.8C400.2,127.4,403.1,133.7,407,139.4z"/>
	</g>
	<g>
		<path class="st2" d="M530.5,95.3c-3.8,29.7-29.1,52.7-59.8,52.7c-33.3,0-60.3-27-60.3-60.3c0-18.7,8.5-35.5,21.9-46.5
			c-1.2,0.6-2.4,1.2-3.5,1.9c-14.6,8.6-25.7,22.5-30.7,39.1c-1.8,6.1-2.8,12.6-2.8,19.3c0,6.7,1,13.1,2.8,19.2c0,0,0,0,0,0
			c3.1,6.2,6,12.5,8.8,18.8c12.2,18,32.8,29.8,56.2,29.8c37.4,0,67.7-30.3,67.8-67.7c0-0.1,0-0.1,0-0.2c0-2-0.1-3.9-0.3-5.9
			C530.7,95.4,530.6,95.4,530.5,95.3z"/>
	</g>
	<path class="st17" d="M390.6,122.3c0.1-0.3,0.2-0.5,0.3-0.8c0.5-2.4,2.4-4.1,4.8-4.3c2.6-0.2,4.8,1.2,5.6,3.6
		c1.9,6.2,4.8,12,8.1,17.5c2,3.4,3.3,7.2,4.9,10.8c10.5,24.7,19.1,50.1,25.8,76.1c3.5,13.5,6.5,27,8.8,40.8c1.5,8.7,2.8,17.4,4,26.1
		c0.9,7.1,1.6,14.2,2.2,21.3c0.6,7.2,1.1,14.3,1.5,21.5c0.3,4.9,0.4,9.9,0.5,14.9c0.1,7.4,0.2,14.9,0.1,22.3
		c-0.1,7.3-0.5,14.6-0.9,21.9c-0.3,5.3-0.6,10.5-1,15.8c-0.5,6-1.1,12-1.9,18c-0.7,6.3-1.5,12.6-2.5,18.9
		c-1.2,7.4-2.4,14.9-3.9,22.3c-3,15.7-6.8,31.2-11.2,46.5c-4.7,16.3-10.2,32.3-16.4,48c-1.1,2.7-2.8,4-5.4,4c-3.5,0-6.1-3.4-5-6.8
		c1.1-3.3,2.5-6.6,3.7-9.9c8.1-21.5,14.8-43.3,19.8-65.7c2.6-11.6,4.8-23.3,6.9-35.1c1.3-7.1,2.1-14.2,3-21.3
		c0.8-6.6,1.5-13.2,2.1-19.9c0.5-5.2,0.8-10.5,1-15.8c0.3-7.1,0.7-14.3,0.7-21.4c0.1-9.4-0.1-18.8-0.2-28.2
		c-0.1-3.9-0.3-7.7-0.5-11.6c-0.3-5.5-0.7-11-1.2-16.5c-0.4-5.2-0.9-10.3-1.5-15.5c-0.6-5-1.2-10.1-2-15.1
		c-1.1-7.1-2.3-14.1-3.5-21.1c-2.6-14.7-6-29.2-10-43.6c-7-25.6-15.9-50.5-26.7-74.8c-1.2-2.6-2.8-5-4.2-7.5
		c-2.5-4.5-4.2-9.2-5.8-14c0-0.1-0.1-0.2-0.2-0.3C390.6,123.1,390.6,122.7,390.6,122.3z"/>
	<g>
		<path class="st17" d="M410.4,87.6c0,33.3,27,60.3,60.3,60.3c30.7,0,56-23,59.8-52.7c-27.7-24.5-60.4-43.4-96.5-55
			c-0.6,0.3-1.1,0.6-1.6,0.9C419,52.2,410.4,68.9,410.4,87.6z"/>
	</g>
	<g>
		<g>
			<path class="st2" d="M345.8,576.8c-73.9,0-143.5-28.8-195.8-81.1C97.8,443.5,69,373.9,69,300c0-73.9,28.8-143.5,81.1-195.8
				C202.3,52,271.9,23.2,345.8,23.2c9.3,0,18.7,0.5,27.9,1.4c1.5,0.1,2.8,0.9,3.7,2c0.9,1.1,1.4,2.6,1.2,4c-0.3,2.9-3,5.2-5.9,4.9
				c-8.9-0.9-18-1.3-26.9-1.3C199.2,34.2,80,153.4,80,300s119.3,265.8,265.8,265.8c20.5,0,42.2-2.8,64.4-8.2
				c1.4-0.4,2.9-0.1,4.2,0.6c1.3,0.8,2.1,2,2.5,3.4c0.4,1.4,0.1,2.9-0.6,4.2c-0.8,1.3-2,2.1-3.4,2.5
				C389.8,574,367.2,576.8,345.8,576.8z M410.5,558.6C410.5,558.6,410.5,558.6,410.5,558.6C410.5,558.6,410.5,558.6,410.5,558.6z"/>
		</g>
	</g>
	<g>
		<path class="st2" d="M416.5,556.2C414.6,482.9,369.3,414,295.6,414c-51.3,0-110.6,38.7-133.7,80.7
			c48.7,46.4,114.5,74.9,187.1,74.9c22.5,0,44.4-2.8,65.3-8c0.8-0.2,1.5-0.3,2.3-0.5c0-0.4,0-0.8,0-1.3
			C416.6,558.6,416.5,557.4,416.5,556.2z"/>
	</g>
	<g>
		<circle class="st3" cx="301.8" cy="496.8" r="62.6"/>
	</g>
	<g>
		
			<ellipse transform="matrix(0.7071 -0.7071 0.7071 0.7071 -233.7935 321.0239)" class="st13" cx="270.6" cy="442.7" rx="6.2" ry="5.2"/>
	</g>
	<g>
		
			<ellipse transform="matrix(0.9233 -0.3841 0.3841 0.9233 -151.9377 173.158)" class="st13" cx="357.5" cy="466.9" rx="5.5" ry="6.5"/>
	</g>
	<g>
		<path class="st21" d="M416.5,556.2c-1.9-73.2-61.9-132-135.6-132c-51.3,0-96,28.5-119,70.5c48.7,46.4,114.5,74.9,187.1,74.9
			c22.5,0,44.4-2.8,65.3-8c0.8-0.2,1.5-0.3,2.3-0.5c0-0.4,0-0.8,0-1.3C416.6,558.6,416.5,557.4,416.5,556.2z"/>
	</g>
	<g>
		<path class="st2" d="M146.4,169.2c37.5,64.9,120.4,87.1,185.3,49.7c37.5-21.7,60.7-58.5,66.4-98.3c0,0,0,0,0,0
			c-1.8-6.1-2.8-12.5-2.8-19.2c0-6.7,1-13.2,2.8-19.3c-2.4-16.6-7.9-33.1-16.8-48.6c-0.1-0.2-0.3-0.5-0.4-0.7
			c-0.9-1.5-1.8-2.9-2.7-4.3c-9-0.9-18.2-1.4-27.5-1.4c-89.3,0-168.5,43.1-217.9,109.7c0,0.1,0,0.2,0.1,0.3
			C136,148.1,140.4,158.9,146.4,169.2z"/>
	</g>
	<g>
		<circle class="st3" cx="308.2" cy="120.6" r="69"/>
	</g>
	<path class="st13" d="M292.9,460.3c0,0,7.1-19.4,13-19c7.1,0.5,14.8,26,12.6,25.5C312,465.5,297.6,462,292.9,460.3z"/>
</g>
</svg>
