<?xml version="1.0" encoding="utf-8"?>
<!-- Generator: Adobe Illustrator 22.0.1, SVG Export Plug-In . SVG Version: 6.00 Build 0)  -->
<svg version="1.1" id="圖層_1" xmlns="http://www.w3.org/2000/svg" xmlns:xlink="http://www.w3.org/1999/xlink" x="0px" y="0px"
	 viewBox="0 0 500 500" style="enable-background:new 0 0 500 500;" xml:space="preserve">
<style type="text/css">
	.st0{fill:none;stroke:#231815;stroke-miterlimit:10;}
	.st1{fill:none;stroke:#83C630;stroke-linecap:round;stroke-linejoin:round;stroke-miterlimit:10;}
	.st2{fill:#83C630;}
	.st3{fill:#72BF27;}
	.st4{fill:none;stroke:#83C630;stroke-linecap:round;stroke-miterlimit:10;}
	.st5{clip-path:url(#SVGID_2_);fill:#72BF27;}
	.st6{clip-path:url(#SVGID_2_);fill:#83C630;}
	.st7{clip-path:url(#SVGID_2_);fill:#EFED67;}
	.st8{clip-path:url(#SVGID_2_);fill:none;stroke:#EFED67;stroke-linecap:round;stroke-linejoin:round;stroke-miterlimit:10;}
	.st9{clip-path:url(#SVGID_4_);fill:#72BF27;}
	.st10{clip-path:url(#SVGID_4_);fill:#83C630;}
	.st11{clip-path:url(#SVGID_4_);fill:#EFED67;}
	.st12{clip-path:url(#SVGID_4_);fill:none;stroke:#EFED67;stroke-linecap:round;stroke-linejoin:round;stroke-miterlimit:10;}
	.st13{fill:#EFED67;}
	.st14{fill:#35731C;}
	.st15{fill:#244A12;}
	.st16{fill:#5E9697;}
	.st17{fill:#579E23;}
	.st18{fill:#FFFFFF;}
	.st19{fill:none;stroke:#7AB531;stroke-width:20;stroke-linecap:round;stroke-miterlimit:10;}
	.st20{fill:#231815;}
	.st21{fill:none;}
	.st22{clip-path:url(#SVGID_6_);}
	.st23{fill:#7AB531;}
	.st24{clip-path:url(#SVGID_8_);fill:none;stroke:#7AB531;stroke-width:20;stroke-miterlimit:10;}
	.st25{clip-path:url(#SVGID_8_);}
	.st26{clip-path:url(#SVGID_8_);fill:none;stroke:#7AB531;stroke-width:10;stroke-miterlimit:10;}
	.st27{fill:none;stroke:#7AB531;stroke-width:10;stroke-miterlimit:10;}
	.st28{clip-path:url(#SVGID_10_);fill:none;stroke:#7AB531;stroke-width:20;stroke-miterlimit:10;}
	.st29{clip-path:url(#SVGID_10_);}
	.st30{fill:none;stroke:#7AB531;stroke-width:10;stroke-linecap:round;stroke-miterlimit:10;}
	.st31{clip-path:url(#SVGID_10_);fill:none;stroke:#7AB531;stroke-width:10;stroke-linecap:round;stroke-miterlimit:10;}
	.st32{clip-path:url(#SVGID_10_);fill:none;}
	
		.st33{clip-path:url(#SVGID_10_);fill:none;stroke:#7AB531;stroke-width:10;stroke-linecap:round;stroke-linejoin:round;stroke-miterlimit:10;}
	.st34{clip-path:url(#SVGID_12_);fill:none;stroke:#7AB531;stroke-width:18;stroke-miterlimit:10;}
	.st35{clip-path:url(#SVGID_12_);}
	.st36{fill:none;stroke:#7AB531;stroke-width:12;stroke-linecap:round;stroke-miterlimit:10;}
	.st37{clip-path:url(#SVGID_12_);fill:none;stroke:#7AB531;stroke-width:12;stroke-linecap:round;stroke-miterlimit:10;}
	.st38{clip-path:url(#SVGID_12_);fill:none;stroke:#7AB531;stroke-width:10;stroke-linecap:round;stroke-miterlimit:10;}
</style>
<circle class="st19" cx="250" cy="253.8" r="227.2"/>
<g>
	<defs>
		<circle id="SVGID_5_" cx="250" cy="250" r="227.2"/>
	</defs>
	<clipPath id="SVGID_2_">
		<use xlink:href="#SVGID_5_"  style="overflow:visible;"/>
	</clipPath>
	<g style="clip-path:url(#SVGID_2_);">
		<path class="st23" d="M250,487.2c-63.4,0-122.9-24.7-167.8-69.5C37.5,372.9,12.8,313.4,12.8,250c0-63.4,24.7-122.9,69.5-167.8
			C127.1,37.4,186.7,12.8,250,12.8S373,37.4,417.8,82.2c44.8,44.8,69.5,104.4,69.5,167.8c0,63.4-24.7,122.9-69.5,167.8
			C373,462.6,313.4,487.2,250,487.2z M250,32.8C130.3,32.8,32.8,130.2,32.8,250c0,119.8,97.5,217.2,217.2,217.2
			c119.8,0,217.2-97.5,217.2-217.2C467.3,130.2,369.8,32.8,250,32.8z"/>
	</g>
	<g style="clip-path:url(#SVGID_2_);">
		<path class="st23" d="M237.6,47.4c13.9,8.8,19.7,21.8,19.7,37.8c0,47.5,0,94.9,0,142.4c0,1.5,0,3,0,4.6c0.3,0.1,0.6,0.1,0.8,0.2
			c0.7-1.1,1.4-2.1,2.1-3.2c27.1-46.5,54.2-92.9,81.4-139.4c0.7-1.1,1.3-2.3,2.1-3.4c2.2-3.1,6.1-4,9.2-2.4c3.1,1.7,4.2,5.4,2.7,9.1
			c-0.6,1.5-1.5,2.8-2.3,4.2c-31.2,53.5-62.4,107-93.5,160.5c-1.3,2.3-2.2,5.2-2.2,7.8c-0.1,44.1-0.1,88.3-0.1,132.4
			c0,1.3,0.1,2.6,0.2,4c2.6,0,5-0.1,7.3,0c3.3,0.2,6.1,1.9,6.2,5.1c0.3,14.8,0.3,29.5,0,44.3c-0.1,4.1-3.7,5.7-7.6,5.4
			c-9.3-0.8-18.5-1.7-27.8-2.6c-11-1-22-2.1-33-3c-6.1-0.5-8.7-2.9-8.7-9c-0.1-8.5,0-17.1,0-25.6c0-6.2,2.4-8.6,8.6-9.1
			c12.6-1.1,25.2-2.2,37.8-3.3c2.2-0.2,3.3-0.9,3.3-3.4c-0.1-37.3,0-74.7-0.1-112c0-0.6-0.2-1.2-0.5-2.8c-1.4,2.3-2.4,3.8-3.3,5.3
			c-26.9,46.1-53.8,92.3-80.7,138.4c-0.2,0.3-0.4,0.7-0.6,1c-3,5.1-6.6,6.6-10.4,4.4c-3.9-2.2-4.4-6.4-1.4-11.5
			c5.4-9.3,10.9-18.6,16.3-28c26.2-44.9,52.4-89.7,78.5-134.6c1.1-1.9,2-4.2,2-6.3c0.1-35.3,0.1-70.7,0.1-106c0-0.7-0.1-1.3-0.2-2.4
			c-1.4-0.1-2.8-0.2-4.2-0.2c-7.7,0-15.5,0.1-23.2-0.1c-4.7-0.1-7.8-3.2-7.7-7c0.1-3.7,3.1-6.4,7.6-6.7c1.5-0.1,2.9,0,4.4,0
			c7.3,0,14.7-0.1,22-0.1c0.2,0,0.5-0.2,1.3-0.4c0-6.3,0.1-12.7-0.1-19.2c0-0.7-2-1.8-3.1-1.8c-6.1-0.2-12.3-0.1-18.4-0.1
			c-1.9,0-3.7,0-5.6,0c-5-0.2-8.2-3-8-7c0.2-4,3.2-6.6,8.1-6.6c7.5-0.1,14.9,0,22.4,0c1.4,0,2.9,0,4.6,0
			c0.8-13.7,1.5-26.7-10.3-36.6c-5.6-4.7-4.5-9.2,2.2-13.1C236,47.4,236.8,47.4,237.6,47.4z"/>
	</g>
	<g style="clip-path:url(#SVGID_2_);">
		<g>
			<path class="st23" d="M155.3,201.8h-106c-19.3,0-35-14.2-35-31.7s15.7-31.7,35-31.7h106c19.3,0,35,14.2,35,31.7
				S174.6,201.8,155.3,201.8z M49.3,148.5c-13.8,0-25,9.7-25,21.7s11.2,21.7,25,21.7h106c13.8,0,25-9.7,25-21.7s-11.2-21.7-25-21.7
				H49.3z"/>
		</g>
	</g>
	<g style="clip-path:url(#SVGID_2_);">
		<rect x="25.4" y="210.8" class="st23" width="224.6" height="10"/>
	</g>
	<g style="clip-path:url(#SVGID_2_);">
		<rect x="251.6" y="311.8" class="st23" width="218.9" height="10"/>
	</g>
	<g style="clip-path:url(#SVGID_2_);">
		<rect x="140.6" y="439.8" class="st23" width="218.9" height="10"/>
	</g>
	<g style="clip-path:url(#SVGID_2_);">
		<rect x="246.7" y="111.8" class="st23" width="218.9" height="10"/>
	</g>
	<g style="clip-path:url(#SVGID_2_);">
		<path class="st23" d="M388.9,75.1H124.7c-2.8,0-5-2.2-5-5s2.2-5,5-5h264.3c2.8,0,5,2.2,5,5S391.7,75.1,388.9,75.1z"/>
	</g>
	<g style="clip-path:url(#SVGID_2_);">
		<g>
			<path class="st23" d="M477.3,257.6H333.5c-13.8,0-25-11.2-25-25s11.2-25,25-25h143.8c13.8,0,25,11.2,25,25
				S491.1,257.6,477.3,257.6z M333.5,217.6c-8.3,0-15,6.7-15,15s6.7,15,15,15h143.8c8.3,0,15-6.7,15-15s-6.7-15-15-15H333.5z"/>
		</g>
	</g>
	<g style="clip-path:url(#SVGID_2_);">
		<g>
			<path class="st23" d="M385.1,158.2h-58c-8.3,0-15-6.7-15-15s6.7-15,15-15h58c8.3,0,15,6.7,15,15S393.4,158.2,385.1,158.2z
				 M327.1,138.2c-2.8,0-5,2.2-5,5s2.2,5,5,5h58c2.8,0,5-2.2,5-5s-2.2-5-5-5H327.1z"/>
		</g>
	</g>
	<g style="clip-path:url(#SVGID_2_);">
		<rect x="25.4" y="247.1" class="st23" width="218.3" height="10"/>
	</g>
	<g style="clip-path:url(#SVGID_2_);">
		<g>
			<path class="st23" d="M320.5,435.8h-91.2c-7.7,0-14-6.3-14-14s6.3-14,14-14h91.2c7.7,0,14,6.3,14,14S328.2,435.8,320.5,435.8z
				 M229.2,417.8c-2.2,0-4,1.8-4,4s1.8,4,4,4h91.2c2.2,0,4-1.8,4-4s-1.8-4-4-4H229.2z"/>
		</g>
	</g>
	<g style="clip-path:url(#SVGID_2_);">
		<rect x="41.6" y="346.5" class="st23" width="151" height="10"/>
	</g>
</g>
</svg>
