<?xml version="1.0" encoding="utf-8"?>
<!-- Generator: Adobe Illustrator 22.0.1, SVG Export Plug-In . SVG Version: 6.00 Build 0)  -->
<svg version="1.1" id="圖層_1" xmlns="http://www.w3.org/2000/svg" xmlns:xlink="http://www.w3.org/1999/xlink" x="0px" y="0px"
	 viewBox="0 0 500 500" style="enable-background:new 0 0 500 500;" xml:space="preserve">
<style type="text/css">
	.st0{fill:none;stroke:#231815;stroke-miterlimit:10;}
	.st1{fill:none;stroke:#83C630;stroke-linecap:round;stroke-linejoin:round;stroke-miterlimit:10;}
	.st2{fill:#83C630;}
	.st3{fill:#72BF27;}
	.st4{fill:none;stroke:#83C630;stroke-linecap:round;stroke-miterlimit:10;}
	.st5{clip-path:url(#SVGID_2_);fill:#72BF27;}
	.st6{clip-path:url(#SVGID_2_);fill:#83C630;}
	.st7{clip-path:url(#SVGID_2_);fill:#EFED67;}
	.st8{clip-path:url(#SVGID_2_);fill:none;stroke:#EFED67;stroke-linecap:round;stroke-linejoin:round;stroke-miterlimit:10;}
	.st9{clip-path:url(#SVGID_4_);fill:#72BF27;}
	.st10{clip-path:url(#SVGID_4_);fill:#83C630;}
	.st11{clip-path:url(#SVGID_4_);fill:#EFED67;}
	.st12{clip-path:url(#SVGID_4_);fill:none;stroke:#EFED67;stroke-linecap:round;stroke-linejoin:round;stroke-miterlimit:10;}
	.st13{fill:#EFED67;}
	.st14{fill:#35731C;}
	.st15{fill:#244A12;}
	.st16{fill:#5E9697;}
	.st17{fill:#579E23;}
	.st18{fill:#FFFFFF;}
	.st19{fill:none;stroke:#7AB531;stroke-width:20;stroke-linecap:round;stroke-miterlimit:10;}
	.st20{fill:#231815;}
	.st21{fill:none;}
	.st22{clip-path:url(#SVGID_6_);}
	.st23{fill:#7AB531;}
	.st24{clip-path:url(#SVGID_8_);fill:none;stroke:#7AB531;stroke-width:20;stroke-miterlimit:10;}
	.st25{clip-path:url(#SVGID_8_);}
	.st26{clip-path:url(#SVGID_8_);fill:none;stroke:#7AB531;stroke-width:10;stroke-miterlimit:10;}
	.st27{fill:none;stroke:#7AB531;stroke-width:10;stroke-miterlimit:10;}
	.st28{clip-path:url(#SVGID_10_);fill:none;stroke:#7AB531;stroke-width:20;stroke-miterlimit:10;}
	.st29{clip-path:url(#SVGID_10_);}
	.st30{fill:none;stroke:#7AB531;stroke-width:10;stroke-linecap:round;stroke-miterlimit:10;}
	.st31{clip-path:url(#SVGID_10_);fill:none;stroke:#7AB531;stroke-width:10;stroke-linecap:round;stroke-miterlimit:10;}
	.st32{clip-path:url(#SVGID_10_);fill:none;}
	
		.st33{clip-path:url(#SVGID_10_);fill:none;stroke:#7AB531;stroke-width:10;stroke-linecap:round;stroke-linejoin:round;stroke-miterlimit:10;}
	.st34{clip-path:url(#SVGID_12_);fill:none;stroke:#7AB531;stroke-width:18;stroke-miterlimit:10;}
	.st35{clip-path:url(#SVGID_12_);}
	.st36{fill:none;stroke:#7AB531;stroke-width:12;stroke-linecap:round;stroke-miterlimit:10;}
	.st37{clip-path:url(#SVGID_12_);fill:none;stroke:#7AB531;stroke-width:12;stroke-linecap:round;stroke-miterlimit:10;}
	.st38{clip-path:url(#SVGID_12_);fill:none;stroke:#7AB531;stroke-width:10;stroke-linecap:round;stroke-miterlimit:10;}
</style>
<circle class="st19" cx="250" cy="250" r="227.2"/>
<g>
	<defs>
		<circle id="SVGID_11_" cx="250" cy="250" r="227.2"/>
	</defs>
	<clipPath id="SVGID_2_">
		<use xlink:href="#SVGID_11_"  style="overflow:visible;"/>
	</clipPath>
	
		<circle style="clip-path:url(#SVGID_2_);fill:none;stroke:#7AB531;stroke-width:18;stroke-miterlimit:10;" cx="251.4" cy="250" r="227.2"/>
	<g style="clip-path:url(#SVGID_2_);">
		<path class="st23" d="M165.1,395.7c1,1.5,2.6,2.8,5.4,3.5c54,0,108.1,0,162.1,0c1.4-0.7,3.4-1.2,4-2c3.1-3.9,5.8-7.9,8.8-12
			c-62.8,0-125,0-187.6,0C160.3,388.8,162.7,392.2,165.1,395.7z"/>
		<path class="st23" d="M347.9,293.4c-64.4,0-128.6,0-193,0c-3.4,26.1-3.6,52,0,77.8c64.5,0,128.7,0,193,0
			C351.5,345.1,351.4,319.3,347.9,293.4z"/>
		<path class="st23" d="M168.9,116.3c19.7,9,39.5,18,59.2,27.1c0.8,0.4,1.6,0.8,2.8,1.4c-8.6,3.9-16.7,7.7-25,11.4
			c-0.5,0.2-1.6-0.3-2.1-0.8c-11-10.5-26.5-9.5-35.9,2.4c-5.8,7.5-6.1,18.9-0.7,27.1c5.5,8.2,16.3,12.4,25.5,9.7
			c10.5-3.1,16.4-10.2,17.6-21.1c0.2-1.5,0.7-2.3,2-2.9c12-5.4,23.9-10.9,35.8-16.3c0.9-0.4,2.4-0.5,3.4,0c12,5.4,24,11,36.1,16.4
			c1.3,0.6,1.7,1.4,1.9,2.7c0.5,2.8,0.9,5.8,2.1,8.3c8,16.4,29,18.5,40.3,4.1c5.8-7.3,6.2-18.1,1-26.6c-4.6-7.6-14.6-12.2-23.2-10.8
			c-6,1-10.8,3.9-14.8,8.3c-8.6-3.9-17-7.8-25.9-11.9c1.2-0.6,2-1,2.8-1.4c11.1-5.1,22.3-10.2,33.4-15.3c8.7-4,17.5-8,26.2-12
			c5.1-2.4,6.7-7.7,3.8-11.9c-2.4-3.5-6.3-4.2-11-2.1C300.3,113,276.4,124,252.5,135c-1.7,0.8-3.1,0.9-4.9,0
			c-23.2-10.7-46.4-21.3-69.7-31.9c-1.5-0.7-3-1.4-4.6-1.9c-4-1.2-8.1,0.9-9.6,4.8C162.2,110.1,164.1,114.1,168.9,116.3z"/>
		<path class="st23" d="M336.3,265.2c-1.5-3.1-4.4-4.4-9-4.4c-51.5,0.1-102.9,0-154.4,0c-0.7,0-1.5,0-2.2,0
			c-2.6,0.1-4.8,0.9-5.8,2.7c-3,5.4-5.7,10.8-8.7,16.4c62.8,0,124.9,0,187.6,0C341.3,275,338.7,270.1,336.3,265.2z"/>
	</g>
	<g style="clip-path:url(#SVGID_2_);">
		<path class="st36" d="M428,120.8c-0.2,0-0.3,0-0.5,0L240,116.1c-11-0.3-19.8-9.5-19.5-20.5s9.5-19.7,20.5-19.5l187.5,4.7
			c11,0.3,19.8,9.5,19.5,20.5C447.7,112.2,438.8,120.8,428,120.8z"/>
	</g>
	
		<line style="clip-path:url(#SVGID_2_);fill:none;stroke:#7AB531;stroke-width:12;stroke-linecap:round;stroke-miterlimit:10;" x1="46.3" y1="158.3" x2="215" y2="158.3"/>
	
		<line style="clip-path:url(#SVGID_2_);fill:none;stroke:#7AB531;stroke-width:12;stroke-linecap:round;stroke-miterlimit:10;" x1="41.5" y1="182.6" x2="178" y2="182.6"/>
	<g style="clip-path:url(#SVGID_2_);">
		<path class="st36" d="M474.8,223.6H216.1c-5.5,0-10-4.5-10-10s4.5-10,10-10h258.7c5.5,0,10,4.5,10,10S480.3,223.6,474.8,223.6z"/>
	</g>
	
		<line style="clip-path:url(#SVGID_2_);fill:none;stroke:#7AB531;stroke-width:10;stroke-linecap:round;stroke-miterlimit:10;" x1="24.5" y1="241.1" x2="478.7" y2="241.1"/>
	
		<line style="clip-path:url(#SVGID_2_);fill:none;stroke:#7AB531;stroke-width:10;stroke-linecap:round;stroke-miterlimit:10;" x1="65.1" y1="50.6" x2="519.4" y2="50.6"/>
	<g style="clip-path:url(#SVGID_2_);">
		<path class="st30" d="M204.5,329h-163c-16.6,0-30-13.4-30-30s13.4-30,30-30h163c16.6,0,30,13.4,30,30S221,329,204.5,329z"/>
	</g>
	
		<line style="clip-path:url(#SVGID_2_);fill:none;stroke:#7AB531;stroke-width:10;stroke-linecap:round;stroke-miterlimit:10;" x1="289" y1="356.6" x2="459" y2="356.6"/>
	<g style="clip-path:url(#SVGID_2_);">
		<path class="st30" d="M304.4,439.1H0.3c-5.5,0-10-4.5-10-10s4.5-10,10-10h304.1c5.5,0,10,4.5,10,10S309.9,439.1,304.4,439.1z"/>
	</g>
</g>
</svg>
