<?xml version="1.0" encoding="utf-8"?>
<!-- Generator: Adobe Illustrator 22.0.1, SVG Export Plug-In . SVG Version: 6.00 Build 0)  -->
<svg version="1.1" id="圖層_1" xmlns="http://www.w3.org/2000/svg" xmlns:xlink="http://www.w3.org/1999/xlink" x="0px" y="0px"
	 viewBox="0 0 500 500" style="enable-background:new 0 0 500 500;" xml:space="preserve">
<style type="text/css">
	.st0{fill:none;stroke:#231815;stroke-miterlimit:10;}
	.st1{fill:none;stroke:#83C630;stroke-linecap:round;stroke-linejoin:round;stroke-miterlimit:10;}
	.st2{fill:#83C630;}
	.st3{fill:#72BF27;}
	.st4{fill:none;stroke:#83C630;stroke-linecap:round;stroke-miterlimit:10;}
	.st5{clip-path:url(#SVGID_2_);fill:#72BF27;}
	.st6{clip-path:url(#SVGID_2_);fill:#83C630;}
	.st7{clip-path:url(#SVGID_2_);fill:#EFED67;}
	.st8{clip-path:url(#SVGID_2_);fill:none;stroke:#EFED67;stroke-linecap:round;stroke-linejoin:round;stroke-miterlimit:10;}
	.st9{clip-path:url(#SVGID_4_);fill:#72BF27;}
	.st10{clip-path:url(#SVGID_4_);fill:#83C630;}
	.st11{clip-path:url(#SVGID_4_);fill:#EFED67;}
	.st12{clip-path:url(#SVGID_4_);fill:none;stroke:#EFED67;stroke-linecap:round;stroke-linejoin:round;stroke-miterlimit:10;}
	.st13{fill:#EFED67;}
	.st14{fill:#35731C;}
	.st15{fill:#244A12;}
	.st16{fill:#5E9697;}
	.st17{fill:#579E23;}
	.st18{fill:#FFFFFF;}
	.st19{fill:none;stroke:#7AB531;stroke-width:20;stroke-linecap:round;stroke-miterlimit:10;}
	.st20{fill:#231815;}
	.st21{fill:none;}
	.st22{clip-path:url(#SVGID_6_);}
	.st23{fill:#7AB531;}
	.st24{clip-path:url(#SVGID_8_);fill:none;stroke:#7AB531;stroke-width:20;stroke-miterlimit:10;}
	.st25{clip-path:url(#SVGID_8_);}
	.st26{clip-path:url(#SVGID_8_);fill:none;stroke:#7AB531;stroke-width:10;stroke-miterlimit:10;}
	.st27{fill:none;stroke:#7AB531;stroke-width:10;stroke-miterlimit:10;}
	.st28{clip-path:url(#SVGID_10_);fill:none;stroke:#7AB531;stroke-width:20;stroke-miterlimit:10;}
	.st29{clip-path:url(#SVGID_10_);}
	.st30{fill:none;stroke:#7AB531;stroke-width:10;stroke-linecap:round;stroke-miterlimit:10;}
	.st31{clip-path:url(#SVGID_10_);fill:none;stroke:#7AB531;stroke-width:10;stroke-linecap:round;stroke-miterlimit:10;}
	.st32{clip-path:url(#SVGID_10_);fill:none;}
	
		.st33{clip-path:url(#SVGID_10_);fill:none;stroke:#7AB531;stroke-width:10;stroke-linecap:round;stroke-linejoin:round;stroke-miterlimit:10;}
	.st34{clip-path:url(#SVGID_12_);fill:none;stroke:#7AB531;stroke-width:18;stroke-miterlimit:10;}
	.st35{clip-path:url(#SVGID_12_);}
	.st36{fill:none;stroke:#7AB531;stroke-width:12;stroke-linecap:round;stroke-miterlimit:10;}
	.st37{clip-path:url(#SVGID_12_);fill:none;stroke:#7AB531;stroke-width:12;stroke-linecap:round;stroke-miterlimit:10;}
	.st38{clip-path:url(#SVGID_12_);fill:none;stroke:#7AB531;stroke-width:10;stroke-linecap:round;stroke-miterlimit:10;}
</style>
<circle class="st19" cx="250" cy="250" r="227.2"/>
<g>
	<defs>
		<circle id="SVGID_9_" cx="250" cy="250" r="227.2"/>
	</defs>
	<clipPath id="SVGID_2_">
		<use xlink:href="#SVGID_9_"  style="overflow:visible;"/>
	</clipPath>
	
		<circle style="clip-path:url(#SVGID_2_);fill:none;stroke:#7AB531;stroke-width:20;stroke-miterlimit:10;" cx="250" cy="249.9" r="227.2"/>
	<g style="clip-path:url(#SVGID_2_);">
		<path class="st23" d="M317.9,303.9c-7.5-22.7-17.2-44.5-26.5-66.4c-15-35.4-28.5-71.3-32.5-109.9c0,0,0,0,0,0c0,0,0,0,0,0
			c-0.6-3.8,0.9-5.1,4.8-4.8c5.2,0.4,10.4,0.1,15.6,0c2.9-0.1,5.1-1.5,6.3-4.1c1.2-2.5,0.8-5-0.9-7.1c-1.8-2.4-4.5-2.8-7.2-2.8
			c-5.1-0.1-10.1-0.2-15.2,0c-3.4,0.2-4.4-1.1-4.2-4.4c0.3-3.2,0.1-6.4,0.1-9.6c6.5,0,13,0,19.6-0.1c4.8-0.1,7.7-2.2,8.3-5.9
			c0.8-4.5-2.5-8.1-7.9-8.3c-6.7-0.2-13.3-0.1-20-0.1v0v0c0-2.9-0.1-5.7-0.1-8.6c7.9-6.1,7.7-12.9,5.7-18.2
			c-1.7-4.5-5.7-6.4-9.6-8.4c-2.1,0-4.3,0-6.4,0c-3.9,2-7.8,3.9-9.6,8.4c-2.1,5.3-2.2,12.1,5.7,18.2c0,2.9-0.1,5.7-0.1,8.6l0,0
			c-6.7,0-13.3,0-20,0.1c-5,0.1-8,2.9-8,7.1c0,4.1,3,6.9,8,7.1c6.7,0.2,13.3,0.1,20,0.2c0,3.2-0.1,6.4,0.1,9.6
			c0.3,3.2-0.8,4.5-4.2,4.4c-5.3-0.2-10.7-0.2-16,0c-5,0.2-8,3-7.9,7.2c0.1,4.1,3.1,6.8,8.2,6.9c4.8,0.1,9.6,0.3,14.4-0.1
			c3.9-0.3,5.4,1,4.8,4.8c0,0,0,0,0,0c-2.5,20.8-7,41.2-13.6,61.1c-7.9,23.8-18.1,46.7-27.8,69.8c-8.9,21.3-17.8,42.5-23.3,65
			c-5.9,24.4-7.5,49-1.1,73.6c11.1,42.7,49.4,61.5,83.1,56.8c24.2-3.3,43.3-15,55.7-36.6c8.5-14.8,11.7-31.1,12.3-47.9
			C329.5,346.9,324.9,325.2,317.9,303.9z M250.7,158.3c3.8-0.2,7.3,3.1,7.3,6.9c0,3.6-3.2,6.9-6.8,7c-3.6,0.1-6.9-3.1-7.1-6.7
			C243.9,161.9,247,158.5,250.7,158.3z M243.3,186.7c2.6-0.2,5.3,0,8,0c2.5,0,5.1-0.2,7.6,0c3.7,0.3,6.1,3.1,6.1,6.7
			c0,3.5-2.3,6.6-6,6.8c-5.3,0.3-10.7,0.3-16,0c-3.7-0.2-6-3.3-5.9-6.9C237.2,189.8,239.6,187.1,243.3,186.7z M314.2,372.9
			c-1.4,19.3-6.3,37.4-20.9,51.3c-28.8,27.3-81.3,20.4-98.3-20.3c-8-19.3-8.7-39.4-5.9-59.7c2.9-22,10.4-42.6,18.7-63
			c7.1-17.4,14.5-34.6,21.7-52c-1.1-0.5-2.2-1-3.2-1.6c-2.9-1.7-3.9-4.4-3.1-7.5c0.8-3.4,3.3-5.2,6.7-5.2c7.3-0.1,14.6-0.1,21.9-0.1
			c5.9,0,11.7,0,17.6,0.1c5.8,0,8.6,1.6,9.5,5.3c0.9,4-0.8,6.5-6.3,9.1c10.6,26,22.6,51.5,31.5,78.2
			C311.2,328.6,315.9,350.3,314.2,372.9z"/>
		<path class="st23" d="M268.1,227.3c-11.4-0.2-22.7-0.2-34.1,0c-1.7,0-3.5,0.1-4.5,1.9c14.4,0,28.7,0,43.1,0
			C271.6,227.4,269.8,227.3,268.1,227.3z"/>
		<path class="st23" d="M274.4,398.8c-1.2-0.5-2.1-1-2.6-2.3c-1.3-3.9-4.3-5.1-8.1-5c-8.4,0.1-16.8,0.1-25.2,0c-3.8,0-6.8,1-8.2,5
			c-0.4,1.1-1.1,1.7-2.1,2.2c-4.3,2.3-5.8,4.8-5,8.4c0.8,3.4,3.7,5.3,8.4,5.3c6.4,0.1,12.8,0,19.2,0c0,0,0,0,0,0
			c6.9,0,13.9,0.1,20.8,0c3.7-0.1,6.6-1.7,7.3-5.6C279.6,403,278,400.2,274.4,398.8z"/>
		<path class="st23" d="M269.8,242.8c-12.5,0-25,0-37.6,0c-1.8,0-3.5,0.2-5.1,0.9c-2.6,1.3-4.2,3.2-4.2,6.2c0,3.1,1.6,5,4.2,6.2
			c1.7,0.8,3.6,1,5.5,0.9c6.1,0,12.3,0,18.4,0c0,0,0,0,0,0c6.7,0,13.3,0.2,20-0.1c6-0.2,9.6-4.7,7.7-9.4
			C277.1,243.7,273.7,242.8,269.8,242.8z"/>
		<path class="st23" d="M279,279.1c0.4-3.6-1.4-6.3-5.1-7.5c-1.9-0.7-3.9-0.8-5.9-0.8c-10.5,0-21,0-31.6,0c-2.3,0-4.6,0-6.8,0.4
			c-4.6,0.9-6.9,3.7-6.5,7.6c0.3,3.8,3.3,6.2,7.9,6.3c6.7,0.1,13.3,0,20,0c0,0,0,0,0,0c7.1,0,14.1,0.1,21.2,0
			C275.9,285.1,278.6,282.5,279,279.1z"/>
		<path class="st23" d="M237.9,341.8c8.8,0.2,17.6,0.2,26.3,0c5-0.1,7.8-3.2,7.6-7.5c-0.2-4.1-3-6.6-7.9-6.7c-4.3-0.1-8.5,0-12.8,0
			c-4.3,0-8.5-0.1-12.8,0c-5.1,0.1-8,2.6-8.2,6.9C230.1,338.7,232.9,341.7,237.9,341.8z"/>
		<path class="st23" d="M237.3,313.2c9.2,0.1,18.4,0.1,27.6,0c4.5-0.1,6.9-2.5,7-6.6c0.1-4.2-2.4-6.8-7-7c-4.5-0.1-9.1,0-13.6,0
			c-4.7,0-9.3-0.1-14,0c-4.4,0.1-6.9,2.6-7,6.6C230.2,310.4,232.7,313.1,237.3,313.2z"/>
	</g>
	<g style="clip-path:url(#SVGID_2_);">
		<path class="st30" d="M165.4,130.5H75.1c-16.6,0-30-13.4-30-30s13.4-30,30-30h90.3c16.6,0,30,13.4,30,30S181.9,130.5,165.4,130.5z
			"/>
	</g>
	<g style="clip-path:url(#SVGID_2_);">
		<path class="st30" d="M473.7,172.2H323.9c-11,0-20-9-20-20s9-20,20-20h149.8c11,0,20,9,20,20S484.7,172.2,473.7,172.2z"/>
	</g>
	
		<line style="clip-path:url(#SVGID_2_);fill:none;stroke:#7AB531;stroke-width:10;stroke-linecap:round;stroke-miterlimit:10;" x1="23.9" y1="200.5" x2="229.5" y2="200.5"/>
	
		<line style="clip-path:url(#SVGID_2_);fill:none;stroke:#7AB531;stroke-width:10;stroke-linecap:round;stroke-miterlimit:10;" x1="270.7" y1="200.5" x2="476.3" y2="200.5"/>
	
		<line style="clip-path:url(#SVGID_2_);fill:none;stroke:#7AB531;stroke-width:10;stroke-linecap:round;stroke-miterlimit:10;" x1="290.6" y1="257.2" x2="496.2" y2="257.2"/>
	
		<line style="clip-path:url(#SVGID_2_);fill:none;stroke:#7AB531;stroke-width:10;stroke-linecap:round;stroke-miterlimit:10;" x1="120.2" y1="54.4" x2="362.6" y2="54.4"/>
	
		<line style="clip-path:url(#SVGID_2_);fill:none;stroke:#7AB531;stroke-width:10;stroke-linecap:round;stroke-miterlimit:10;" x1="23.5" y1="232.4" x2="213" y2="232.4"/>
	
		<line style="clip-path:url(#SVGID_2_);fill:none;stroke:#7AB531;stroke-width:10;stroke-linecap:round;stroke-miterlimit:10;" x1="291.4" y1="237.5" x2="476.3" y2="237.5"/>
	
		<line style="clip-path:url(#SVGID_2_);fill:none;stroke:#7AB531;stroke-width:10;stroke-linecap:round;stroke-miterlimit:10;" x1="314.5" y1="297.6" x2="472.3" y2="297.6"/>
	
		<line style="clip-path:url(#SVGID_2_);fill:none;stroke:#7AB531;stroke-width:10;stroke-linecap:round;stroke-miterlimit:10;" x1="322.6" y1="377.6" x2="428.7" y2="377.6"/>
	<path style="clip-path:url(#SVGID_2_);fill:none;" d="M181.9,357.6c1.3,0,2.5,0.2,3.6,0.7l0.1-0.9
		C184.4,357.5,183.2,357.6,181.9,357.6z"/>
	
		<path style="clip-path:url(#SVGID_2_);fill:none;stroke:#7AB531;stroke-width:10;stroke-linecap:round;stroke-linejoin:round;stroke-miterlimit:10;" d="
		M193.8,300.1c-3.6-1.6-7.7-2.5-11.9-2.5h-92c-16.6,0-30,13.4-30,30s13.4,30,30,30h49.3c-5.5,0-10,4.5-10,10s4.5,10,10,10h42.7v-20
		h-2.4L193.8,300.1z"/>
	<path style="clip-path:url(#SVGID_2_);fill:none;stroke:#7AB531;stroke-width:10;stroke-linecap:round;stroke-miterlimit:10;" d="
		M334.5,420.5h-29.8l-20.6,20h50.4c5.5,0,10-4.5,10-10S340.1,420.5,334.5,420.5z"/>
	<path style="clip-path:url(#SVGID_2_);fill:none;stroke:#7AB531;stroke-width:10;stroke-linecap:round;stroke-miterlimit:10;" d="
		M116.5,420.5c-5.5,0-10,4.5-10,10s4.5,10,10,10h101.8l-19.2-20H116.5z"/>
</g>
</svg>
